<?xml version="1.0" standalone="no"?>
<!DOCTYPE svg PUBLIC "-//W3C//DTD SVG 20010904//EN"
 "http://www.w3.org/TR/2001/REC-SVG-20010904/DTD/svg10.dtd">
<svg version="1.0" xmlns="http://www.w3.org/2000/svg"
 width="1184.000000pt" height="672.000000pt" viewBox="0 0 1184.000000 672.000000"
 preserveAspectRatio="xMidYMid meet">

<g transform="translate(0.000000,672.000000) scale(0.100000,-0.100000)"
fill="#000000" stroke="none">
<path d="M7753 4253 c-6 -38 -13 -48 -28 -49 -11 0 -39 -4 -61 -8 -34 -6 -61
-1 -150 29 -101 34 -116 37 -204 33 -75 -3 -106 -9 -151 -30 -70 -32 -122 -83
-144 -143 -16 -40 -16 -52 -5 -99 17 -73 68 -164 108 -194 l34 -26 -21 35
c-27 47 -60 133 -67 176 -9 56 3 96 42 142 46 53 98 80 174 88 176 18 337 -89
444 -296 50 -97 67 -119 36 -47 -10 25 -23 62 -29 83 -9 34 -9 36 4 19 8 -11
24 -45 36 -75 31 -86 43 -111 53 -111 4 0 5 8 1 18 -11 30 -14 61 -25 267 -6
110 -13 208 -16 218 -9 30 -22 18 -31 -30z"/>
<path d="M4915 4280 c-13 -22 -23 -223 -14 -296 6 -42 7 -79 4 -82 -3 -3 -5 2
-5 10 0 23 -69 158 -103 200 -69 86 -199 140 -342 141 -132 2 -193 -19 -266
-92 -66 -66 -89 -121 -71 -168 6 -15 16 -47 22 -71 11 -43 65 -113 103 -134
20 -10 20 -10 -1 17 -28 35 -62 127 -62 167 0 88 57 171 141 207 64 28 200 31
269 6 98 -35 199 -122 255 -220 73 -129 76 -133 70 -100 -4 24 -2 23 11 -10 9
-22 16 -46 17 -52 0 -7 5 -13 10 -13 5 0 7 16 4 38 -3 20 -9 131 -13 245 -6
192 -12 234 -29 207z"/>
<path d="M6473 4153 c4 -85 12 -149 25 -190 11 -35 18 -63 16 -63 -2 0 -19 30
-38 68 -49 97 -89 147 -148 187 -84 55 -147 66 -354 63 l-179 -3 4 -335 c3
-300 9 -375 28 -356 2 2 5 152 6 332 l2 329 170 -3 c197 -3 247 -14 320 -70
43 -32 138 -160 222 -298 10 -17 11 -16 8 11 -2 17 -11 62 -19 100 -8 39 -20
126 -26 195 -12 139 -16 160 -32 160 -8 0 -9 -39 -5 -127z"/>
<path d="M8768 4260 c-117 -14 -191 -45 -259 -108 -137 -127 -206 -288 -230
-540 -14 -149 -31 -170 -145 -175 -45 -2 -54 -5 -56 -22 -2 -11 -9 7 -15 41
-16 84 5 235 53 391 3 10 -2 6 -10 -8 -8 -14 -25 -64 -38 -110 -19 -69 -23
-109 -22 -229 0 -127 3 -157 27 -244 38 -139 96 -245 185 -338 92 -96 174
-150 297 -194 53 -19 108 -40 123 -48 48 -25 132 -36 262 -37 214 0 332 44
462 172 83 81 121 147 154 264 25 89 31 391 10 513 -40 230 -158 453 -289 544
l-32 22 20 -24 c14 -16 2 -11 -41 17 -87 59 -172 92 -282 108 -53 8 -99 14
-102 14 -3 -1 -35 -5 -72 -9z m142 -70 c18 -5 11 -7 -30 -7 -80 0 -167 -19
-215 -47 -50 -30 -173 -165 -230 -255 -5 -8 -16 -22 -24 -30 -13 -14 -13 -12
-7 14 15 59 74 173 111 214 45 50 111 90 174 107 51 14 182 16 221 4z m85 -61
c59 -2 61 -2 121 -63 65 -66 104 -135 131 -236 25 -90 24 -425 -1 -589 -9 -62
-15 -116 -12 -119 4 -3 6 3 7 14 0 18 1 18 8 -1 9 -22 -12 -112 -36 -160 -80
-153 -283 -247 -465 -215 -96 17 -181 63 -253 135 -62 62 -118 157 -130 220
-5 27 -4 27 9 -6 20 -51 55 -119 62 -119 3 0 3 8 -1 18 -42 105 -57 394 -31
581 32 223 61 298 161 409 74 82 239 149 340 137 17 -2 57 -5 90 -6z m-638
-971 c-3 -8 -6 -5 -6 6 -1 11 2 17 5 13 3 -3 4 -12 1 -19z"/>
<path d="M3000 4233 c0 -28 40 -129 208 -523 118 -277 182 -430 182 -435 0 -3
-59 -16 -100 -22 -19 -2 -44 -6 -55 -8 -11 -1 -26 2 -32 7 -17 14 -16 7 7 -53
12 -28 19 -53 17 -55 -1 -2 -29 47 -60 109 -35 69 -94 216 -151 381 -54 153
-103 277 -114 289 l-20 20 -27 -53 c-26 -51 -225 -549 -240 -600 -10 -34 -162
-407 -182 -448 -12 -25 -35 -42 -87 -68 -39 -19 -88 -37 -109 -41 -20 -3 -40
-10 -43 -14 -3 -6 107 -8 258 -7 233 3 263 5 266 19 2 13 -8 18 -44 24 -35 5
-57 16 -81 40 -44 44 -44 87 4 232 l37 113 277 0 277 0 27 -47 c42 -75 59
-154 46 -215 -6 -28 -21 -64 -33 -80 -22 -32 -88 -67 -125 -68 -13 0 -23 -4
-23 -10 0 -6 134 -10 381 -10 357 0 380 1 377 18 -2 13 -16 18 -58 22 -124 12
-165 62 -269 323 -27 68 -108 261 -179 428 -72 167 -159 374 -195 460 -80 191
-136 303 -137 272z m-80 -428 c7 -22 27 -76 46 -120 18 -44 69 -167 113 -273
45 -107 81 -198 81 -203 0 -5 -110 -9 -259 -9 l-259 0 55 138 c30 75 70 182
89 237 57 165 107 286 115 278 3 -5 12 -26 19 -48z"/>
<path d="M5310 4240 c0 -10 16 -15 75 -25 21 -4 55 -15 75 -25 36 -18 93 -75
103 -102 3 -9 8 -10 15 -3 14 14 -11 105 -34 122 -10 7 -28 13 -40 13 -12 0
-24 4 -26 9 -4 12 -168 22 -168 11z"/>
<path d="M6237 3751 c-11 -90 -64 -164 -140 -196 -85 -35 -250 -55 -301 -35
-14 5 -60 12 -101 16 l-75 7 0 -46 c0 -60 -19 -73 -22 -15 -1 24 -5 -92 -8
-257 -4 -219 -10 -312 -20 -345 -19 -60 -75 -113 -140 -135 -37 -12 -48 -20
-39 -26 16 -10 1128 -10 1174 0 39 8 39 9 30 269 -5 157 -10 212 -20 212 -7 0
-16 -30 -24 -82 -6 -49 -23 -108 -41 -145 -16 -35 -26 -63 -23 -63 3 0 -3 -8
-14 -17 -10 -10 -12 -14 -3 -8 8 5 2 -6 -15 -24 -61 -67 -75 -70 -370 -77
-167 -5 -214 -3 -228 8 -16 12 -18 39 -20 341 l-2 327 86 0 c190 0 266 -64
344 -289 4 -11 8 -11 21 0 11 9 14 24 10 53 -3 23 -8 151 -12 286 -7 273 -7
260 -17 278 -15 23 -24 12 -30 -37z"/>
<path d="M3974 3740 c12 -74 61 -164 116 -213 60 -52 177 -111 320 -162 285
-102 345 -161 352 -346 3 -80 1 -89 -27 -135 -26 -41 -44 -56 -108 -89 -74
-37 -83 -39 -167 -39 -84 0 -92 2 -175 43 -139 69 -211 162 -252 329 -16 63
-21 72 -41 72 -21 0 -22 -3 -18 -47 3 -27 8 -142 11 -258 3 -115 10 -214 16
-220 6 -6 27 8 58 41 66 69 83 72 185 30 188 -78 360 -70 508 25 143 92 216
246 206 435 -8 137 -64 255 -150 315 l-33 23 20 -24 c11 -13 15 -20 8 -17 -6
4 -15 2 -18 -4 -13 -21 -97 -49 -145 -49 -37 0 -95 18 -227 69 -237 91 -290
119 -374 199 l-72 67 7 -45z"/>
<path d="M6864 3727 c8 -69 52 -151 108 -203 60 -56 184 -116 373 -179 282
-95 325 -136 338 -321 5 -60 2 -79 -17 -121 -70 -150 -299 -198 -486 -103
-127 64 -200 150 -244 285 -14 44 -26 87 -26 97 0 13 -8 18 -27 18 l-28 0 3
-257 c2 -142 8 -262 13 -267 5 -6 16 -3 27 7 22 20 38 22 45 5 3 -7 6 -4 6 8
1 32 52 74 90 74 19 0 30 -4 26 -10 -4 -6 6 -10 23 -10 16 0 60 -11 97 -25 81
-31 199 -44 297 -34 131 15 275 104 345 215 16 24 32 44 36 44 5 0 6 4 3 8 -3
5 4 32 15 61 58 153 12 348 -109 462 -25 24 -38 33 -27 21 l20 -24 -29 -23
c-56 -45 -148 -57 -214 -29 -20 9 -111 40 -200 70 -255 83 -364 143 -434 238
l-31 41 7 -48z"/>
<path d="M7860 2929 c0 -5 5 -7 10 -4 6 3 10 8 10 11 0 2 -4 4 -10 4 -5 0 -10
-5 -10 -11z"/>
<path d="M3065 2429 c341 -3 682 -10 758 -14 76 -3 260 -3 410 2 l272 8 -280
6 c-154 4 -617 6 -1030 6 l-750 0 620 -8z"/>
<path d="M7730 2431 l-335 -6 258 -14 c257 -14 881 -10 1422 8 l200 7 -195 2
c-826 8 -1056 8 -1350 3z"/>
<path d="M8079 2378 c15 -16 529 -15 601 0 32 7 -48 10 -284 11 -264 1 -327
-1 -317 -11z"/>
<path d="M4486 2303 c-4 -5 -13 -8 -19 -8 -8 0 -13 -34 -15 -109 l-3 -108 65
4 c97 6 130 45 87 100 -13 16 -17 29 -10 39 14 23 11 38 -16 64 -23 24 -73 34
-89 18z m73 -41 c13 -24 1 -40 -36 -48 -25 -5 -31 -2 -36 16 -3 12 -3 28 0 36
8 21 60 18 72 -4z m11 -97 c16 -20 6 -43 -24 -57 -33 -14 -56 3 -56 43 0 26 3
29 34 29 18 0 39 -7 46 -15z"/>
<path d="M4869 2287 c-38 -25 -64 -86 -54 -126 11 -41 59 -81 100 -81 98 0
154 86 110 170 -32 62 -96 77 -156 37z m113 -24 c25 -29 30 -59 14 -96 -16
-39 -41 -57 -79 -57 -34 0 -59 32 -64 83 -5 39 -2 46 22 65 33 27 86 29 107 5z"/>
<path d="M5303 2290 c-64 -39 -81 -117 -37 -169 30 -37 80 -48 135 -32 37 11
39 14 39 50 0 41 -20 67 -45 57 -12 -4 -13 -11 -4 -33 8 -23 7 -30 -8 -41 -10
-7 -29 -10 -43 -7 -61 14 -81 95 -34 142 21 21 31 24 63 19 42 -6 52 -1 44 20
-8 21 -72 17 -110 -6z"/>
<path d="M5693 2295 c-61 -26 -89 -104 -59 -164 24 -46 107 -67 159 -40 30 16
37 28 37 67 0 29 -3 32 -30 32 -27 0 -29 -2 -24 -29 7 -35 -20 -55 -61 -45
-59 15 -73 88 -26 135 33 32 71 38 95 13 15 -14 17 -14 22 0 16 41 -49 59
-113 31z"/>
<path d="M6443 2303 c-22 -4 -23 -8 -23 -114 l0 -109 61 0 c69 0 107 18 133
60 21 37 20 78 -4 118 -29 47 -82 61 -167 45z m126 -49 c50 -64 6 -144 -78
-144 l-31 0 0 78 c0 43 3 82 7 85 3 4 23 7 44 7 29 0 42 -6 58 -26z"/>
<path d="M6903 2294 c-41 -20 -78 -93 -68 -132 3 -15 18 -39 33 -54 21 -23 34
-28 75 -28 42 0 54 5 83 34 19 19 34 44 34 58 0 39 -19 94 -39 112 -27 25 -80
29 -118 10z m95 -11 c-1 -5 4 -21 10 -36 19 -46 15 -85 -13 -112 -51 -52 -120
-19 -120 56 0 48 28 79 82 89 21 4 39 8 41 9 1 0 1 -2 0 -6z"/>
<path d="M7325 2300 c-40 -16 -68 -58 -73 -108 -4 -44 -1 -51 29 -81 30 -31
36 -33 86 -29 63 5 99 34 109 85 9 46 -2 81 -36 114 -29 30 -72 37 -115 19z
m94 -33 c34 -42 20 -125 -25 -146 -36 -16 -50 -14 -79 12 -59 50 -22 147 56
147 20 0 42 -6 48 -13z"/>
<path d="M4058 2185 c-50 -100 -55 -115 -38 -115 10 0 27 13 37 30 15 27 23
30 65 30 42 0 48 -3 54 -25 6 -23 44 -38 44 -17 0 8 -50 159 -65 195 -16 40
-40 16 -97 -98z m96 8 c8 -19 8 -19 -31 -28 -37 -7 -40 0 -18 32 17 24 40 21
49 -4z"/>
<path d="M6049 2190 c-36 -69 -53 -113 -46 -117 6 -3 21 6 34 21 14 17 30 26
39 22 8 -3 12 -2 9 4 -4 6 10 10 34 10 33 0 42 -4 53 -27 7 -14 19 -29 27 -31
11 -4 12 2 6 29 -4 19 -8 44 -7 56 0 14 -4 20 -11 16 -6 -4 -8 0 -4 11 4 9 3
15 -2 12 -5 -3 -19 19 -31 49 -12 30 -27 55 -34 55 -6 0 -36 -50 -67 -110z
m80 8 c7 -19 4 -24 -16 -32 -32 -11 -36 -5 -22 28 15 32 27 33 38 4z"/>
<path d="M7709 2279 c-32 -32 -7 -85 52 -109 33 -14 36 -22 13 -45 -11 -10
-29 -15 -52 -13 -47 4 -53 -17 -9 -31 39 -13 72 -4 100 27 29 32 18 62 -41
106 -45 33 -50 41 -36 49 10 6 25 5 40 -2 28 -12 42 2 24 24 -18 22 -67 18
-91 -6z"/>
<path d="M6206 2137 c3 -10 9 -15 12 -12 3 3 0 11 -7 18 -10 9 -11 8 -5 -6z"/>
<path d="M7819 2091 c-21 -26 -21 -41 1 -41 26 0 44 34 27 49 -10 7 -17 6 -28
-8z"/>
</g>
</svg>
